<svg width="170" height="14" viewBox="0 0 170 14" fill="none" xmlns="http://www.w3.org/2000/svg">
<path fill-rule="evenodd" clip-rule="evenodd" d="M105.356 6.52549C105.256 10.1138 106.962 12.8039 110.072 13.7005C111.183 14.0152 112.35 14.0829 113.49 13.8989C116.791 13.4005 118.9 10.8105 119.101 7.22381C119.339 3.97962 117.24 1.01937 114.084 0.148762C112.922 -0.0495873 111.735 -0.0495873 110.573 0.148762C107.535 0.781438 105.358 3.44197 105.356 6.52549ZM112.381 2.23882C114.957 2.32256 116.977 4.46488 116.893 7.02382V7.41724C116.848 9.07839 115.91 10.5883 114.437 11.3749C112.963 12.1615 111.178 12.1044 109.758 11.2253C108.338 10.3462 107.501 8.7795 107.563 7.1189V6.72056C107.647 4.16162 109.804 2.15508 112.381 2.23882Z" fill="white"/>
<path d="M2.14793 4.56979V13.2231H0V0C0.409049 0.29271 6.44546 5.73583 9.20949 8.14789L9.82222 8.73171V0.19514H11.9718V13.4167C11.5628 13.1304 5.72332 7.7784 2.96771 5.25118C2.71456 5.00309 2.44038 4.77519 2.14793 4.56979Z" fill="white"/>
<path fill-rule="evenodd" clip-rule="evenodd" d="M38.702 13.4167V9.32447C40.1601 9.32447 41.6181 9.32447 42.8671 9.2243C45.7832 9.02396 47.6576 7.42781 47.8666 5.03193C48.0739 2.44065 46.7204 0.44053 44.0133 0.141662C41.5136 0.0414918 39.0138 -0.0586783 36.5141 0.0414918V13.4167H38.702ZM38.8031 7.32764V2.03668C40.2269 1.96904 41.6541 2.00252 43.0727 2.13685H43.3846C44.7348 2.27808 45.7125 3.43816 45.5725 4.73307V4.99252C45.5537 6.29841 44.4353 7.34316 43.0727 7.32764C42.1046 7.39415 41.1826 7.37234 40.2455 7.35017C39.7712 7.33895 39.2931 7.32764 38.8031 7.32764Z" fill="white"/>
<path d="M127.854 4.56979V13.2231H125.704V0C126.115 0.29271 132.458 6.02854 135.425 8.7509V0.19514H137.676V13.4167C137.267 13.1256 131.434 7.7784 128.775 5.34715L127.854 4.56979Z" fill="white"/>
<path d="M163.217 13.4167V2.00138H158.627V0H170V1.90255H165.523V13.4167H163.217Z" fill="white"/>
<path d="M150.246 13.4167V0H152.641V13.3211H150.246V13.4167Z" fill="white"/>
<path d="M99.3662 0V1.90255H91.4526V5.80648H98.1335V7.70902H91.4526V11.4136H99.3662V13.4167H89.1901V0H99.3662Z" fill="white"/>
<path d="M73.6268 0H75.789V11.4955H83.2042V13.4167H73.6268V0Z" fill="white"/>
<path fill-rule="evenodd" clip-rule="evenodd" d="M53.2787 6.5248C53.178 10.1127 54.9851 12.8024 57.9936 13.6989C59.1383 14.0159 60.3385 14.0836 61.512 13.8973C64.7152 13.399 66.821 10.8175 67.024 7.22304C67.2614 3.97926 65.1623 1.01938 62.0071 0.148884C60.845 -0.049628 59.6573 -0.049628 58.4953 0.148884C55.457 0.78148 53.2805 3.44167 53.2787 6.5248ZM60.3023 2.24032C62.8776 2.32405 64.8969 4.46536 64.8126 7.02307V7.42136C64.7581 9.07591 63.8189 10.5759 62.3489 11.3562C60.879 12.1366 59.1015 12.0788 57.686 11.2046C56.2706 10.3305 55.4322 8.77269 55.4868 7.11814V6.71985C55.5711 4.16214 57.7271 2.15658 60.3023 2.24032Z" fill="white"/>
<path fill-rule="evenodd" clip-rule="evenodd" d="M31.0266 13.805L31.1268 13.9999L28.6319 13.9806L27.6356 11.8264H20.9504L19.9525 13.9806H17.3592L18.5557 11.6298C19.2011 10.3694 19.9496 8.89588 20.6875 7.4433C22.4606 3.95276 24.1723 0.583252 24.243 0.583252C24.3431 0.583252 30.7279 13.1186 31.0266 13.805ZM21.8482 9.78979L21.7481 9.98475L26.7378 9.9783L24.243 4.50014L21.8482 9.78979Z" fill="white"/>
</svg>
